<?xml version="1.0" standalone="no"?>
<!DOCTYPE svg PUBLIC "-//W3C//DTD SVG 20010904//EN"
 "http://www.w3.org/TR/2001/REC-SVG-20010904/DTD/svg10.dtd">
<svg version="1.0" xmlns="http://www.w3.org/2000/svg"
 width="96.000000pt" height="96.000000pt" viewBox="0 0 96.000000 96.000000"
 preserveAspectRatio="xMidYMid meet">
<metadata>
Created by potrace 1.14, written by Peter Selinger 2001-2017
</metadata>
<g transform="translate(0.000000,96.000000) scale(0.100000,-0.100000)"
fill="#000000" stroke="none">
<path d="M638 893 c-9 -2 -21 -17 -26 -32 -9 -24 -14 -27 -42 -23 -26 4 -32 1
-37 -17 -5 -20 -11 -21 -157 -22 -83 -1 -156 -1 -162 0 -5 0 -20 -8 -32 -19
-22 -20 -22 -26 -22 -288 0 -147 3 -277 6 -288 10 -36 42 -44 174 -46 73 -1
131 -6 139 -12 10 -7 13 -8 8 0 -4 7 37 11 130 12 74 2 144 7 154 12 10 6 21
25 24 43 11 58 1 555 -11 567 -11 11 -33 17 -62 19 -8 1 -11 12 -8 36 4 27 0
38 -17 50 -22 15 -29 16 -59 8z"/>
<path d="M508 139 c6 -9 9 -18 6 -22 -3 -3 1 -4 10 -3 8 1 18 5 21 9 3 4 2 5
-2 2 -3 -3 -16 3 -27 12 -15 14 -18 14 -8 2z"/>
<path d="M455 111 c-3 -5 -2 -12 3 -15 5 -3 9 1 9 9 0 17 -3 19 -12 6z"/>
</g>
</svg>
